<svg xmlns="http://www.w3.org/2000/svg" width="256" height="256"><path fill="#1976D2" fill-opacity=".016" fill-rule="evenodd" d="M0 128.004v128.004l128.25-.254 128.25-.254.254-127.75L257.008 0H0zm.485.496c0 70.4.119 99.053.265 63.672.146-35.38.146-92.98 0-128C.604 29.153.485 58.1.485 128.5"/><path fill="#1976D2" fill-opacity=".597" fill-rule="evenodd" d="M29 128v128h198V0H29zm93.783-114.606c.29 3.497-.123 7.156-1.146 10.158-1.08 3.171-1.291 5.221-.648 6.321.642 1.1.96 1.199.981.306.016-.727.651-1.942 1.409-2.701 2.075-2.075 2.941-9.959 1.567-14.262-1.864-5.832-2.656-5.767-2.163.178m67.209-2.375c-.702 1.696-4.293 5.764-7.98 9.04-9.071 8.062-12.232 14.024-12.82 24.183-.27 4.662.101 10.33.918 14.038 3.622 16.447.724 26.908-10.749 38.792l-6.681 6.92 1.123 5.254c.685 3.202.805 6.883.309 9.424-.69 3.533-.479 4.59 1.377 6.919 2.854 3.579 4.903 2.737 6.732-2.766.791-2.378 2.366-4.791 3.501-5.362 3.536-1.78 5.158-3.511 9.688-10.342 9.88-14.898 12.084-30.239 6.508-45.297-8.21-22.171-7.644-27.365 4.619-42.421 3.757-4.613 6.244-9.953 5.146-11.051-.227-.228-.988.973-1.691 2.669m-57.61 25.801c-1.485 2.266-1.465 2.295.773 1.097 7.17-3.837 13.408-2.655 17.595 3.336 1.238 1.77 2.25 2.61 2.25 1.865 0-.744-1.774-3.128-3.943-5.296-3.77-3.771-4.188-3.93-9.547-3.636-4.57.251-5.885.737-7.128 2.634m20.87 11.68c.011 2.2.216 2.982.455 1.738.239-1.244.23-3.044-.02-4s-.446.062-.435 2.262m-45.957 10.25c-1.566 7.387-.874 17.419 1.569 22.75 1.261 2.75 2.546 7.372 2.856 10.272l.564 5.272 3.301-3.71c1.815-2.041 3.078-4.07 2.806-4.511-.272-.44.094-.574.814-.298 1.039.399 1.195-1.2.758-7.772-.302-4.551-.911-8.86-1.354-9.576-.442-.716-.792-4.581-.776-8.588.028-7.152-.015-7.277-2.366-6.828-1.316.252-2.357.746-2.312 1.099.242 1.89-.321 2.807-1.722 2.807-1.141 0-1.407-.633-.981-2.334.416-1.654.157-2.333-.888-2.333-.895 0-1.786 1.473-2.269 3.75M116 119.083v5.431l4.497-.357 4.496-.358-1.899-2.649c-1.044-1.458-3.067-3.741-4.496-5.074L116 113.651zm14.408.831-4.093 3.864 3.775 1.131c3.628 1.087 11.91 9.022 11.91 11.41 0 1.145 5.928-6.367 5.972-7.569.015-.412-2.672-.75-5.972-.75h-6v-6c0-3.3-.338-5.989-.75-5.975-.412.014-2.592 1.764-4.842 3.889m-23.386 2.93c.012.361.888 1.781 1.946 3.156 1.504 1.955 2.188 2.237 3.136 1.292.938-.935.942-1.531.021-2.642-1.272-1.532-5.14-2.902-5.103-1.806m7.746 6.215c-2.052 1.083-4.415 3.291-5.25 4.906-2.337 4.52-1.803 5.527 1.101 2.076 3.018-3.587 7.293-6.041 10.522-6.041 2.185 0 2.193-.037.3-1.468-2.413-1.825-2.184-1.843-6.673.527m48.732 3.154c-3.989 1.402-13.5 7.053-13.5 8.021 0 1.142 2.783.926 3.525-.275 1.377-2.227 8.797-6.083 14.251-7.405 4.806-1.165 5.162-1.388 2.224-1.392-1.925-.002-4.85.471-6.5 1.051m12.769.48c.973.254 2.323.237 3-.037.677-.274-.119-.481-1.769-.461-1.65.02-2.204.244-1.231.498m-59.996 4.42c-3.183.919-6.044 4.292-4.468 5.266.445.276 2.631.476 4.857.445 3.338-.046 7.467 1.234 12.588 3.903 1.641.855.576-.913-2.797-4.648-3.254-3.601-3.399-4.013-1.75-4.972 1.489-.867 1.198-1.036-1.703-.986-1.925.032-4.952.479-6.727.992m-9.735 4.97c-.734 1.97.9 7.528 2.034 6.917.51-.275.856-1.787.769-3.359-.19-3.407-2.003-5.707-2.803-3.558M143 145.406c0 .918.7 1.224 2.016.88 3.073-.804 3.426-2.286.543-2.286-1.532 0-2.559.564-2.559 1.406m20 .745c-1.411.579-5.332.762-9 .421-4.488-.416-6.036-.293-5 .397 2.171 1.448 11.993 1.173 15.5-.433 3.471-1.589 2.222-1.91-1.5-.385m-51.304 4.198c-.587 1.531 1.293 3.613 4.988 5.523 2.99 1.544 3.799 1.415 2.316-.372-.685-.825-.852-1.552-.372-1.615a24.18 24.18 0 0 0 1.872-.348 46.31 46.31 0 0 1 2.5-.474c.825-.133-.525-.824-3-1.535s-5.229-1.596-6.121-1.968c-.995-.414-1.838-.109-2.183.789m30.031-.742c-1.477 1.477-.657 4.092 1.674 5.34 3.875 2.074 4.685.807 1.764-2.757-1.491-1.821-3.039-2.983-3.438-2.583m-58.746 42.916c-1.057 1.273-.995 1.42.378.893.902-.347 1.641-1.032 1.641-1.523 0-1.286-.579-1.105-2.019.63m38.603.118c-.527 1.373-.38 1.435.893.378 1.735-1.44 1.916-2.019.63-2.019-.491 0-1.176.739-1.523 1.641m23 0c-.527 1.373-.38 1.435.893.378 1.735-1.44 1.916-2.019.63-2.019-.491 0-1.176.739-1.523 1.641m30.875-.574c-.363.586-.445 1.281-.183 1.543s.743-.218 1.069-1.067c.676-1.762.1-2.072-.886-.476m-59.792 53.6c-1.109 1.108-.748 6.852.509 8.109 1.695 1.695 3.824-.365 3.824-3.698 0-3.601-2.549-6.195-4.333-4.411"/><path fill="#1976D2" fill-opacity=".436" fill-rule="evenodd" d="M29 127.994V256h198V0h-34.706l.466 4.851c.58 6.044-1.702 11.502-8.008 19.149C180.104 29.636 177 36.829 177 41.962c0 1.591 1.382 6.638 3.071 11.216 6.214 16.837 7.121 24.139 4.423 35.582-2.637 11.187-10.706 24.662-16.985 28.367-2.32 1.369-3.815 3.29-4.756 6.113-1.965 5.896-4.059 6.909-7.392 3.576-2.518-2.518-2.667-3.214-2.777-12.988l-.117-10.328 6.127-6.509c11.314-12.017 14.354-22.113 10.911-36.23-2.378-9.748-2.191-18.853.538-26.146 1.765-4.717 3.854-7.472 10.977-14.474 8.832-8.682 10.856-12.353 9.809-17.791-.343-1.779-3.446-1.86-81.093-2.106L29-.012zM119.727 4.606c-.361.361.003 1.598.808 2.748 1.909 2.725 1.91 12.646.002 17.212-1.131 2.707-1.21 4.058-.347 5.951l1.116 2.45 2.251-2.251c2.923-2.923 4.021-10.168 2.49-16.431-1.187-4.856-5.12-10.879-6.32-9.679M142.5 26.191c-.55 1.269-2.447 2.986-4.215 3.817-2.92 1.371-8.285 7.287-8.285 9.135 0 .415 1.568.1 3.484-.701 4.364-1.823 10.409-2.105 13.194-.614 1.17.626 3.13 3.21 4.356 5.743 2.007 4.146 2.106 5.021.985 8.767-.684 2.289-2.319 6.285-3.632 8.879-2.618 5.173-2.783 5.783-1.564 5.783C148.251 67 155 52.451 155 49.371c0-3.981-3.867-11.292-7.293-13.79-1.661-1.211-4.351-2.036-6.641-2.036h-3.848l2.925-1.778c3.158-1.921 4.219-3.721 3.692-6.266-.257-1.241-.567-1.081-1.335.69M95.54 45.935c-.318.515.603 2.117 2.046 3.56 1.843 1.843 2.485 3.351 2.158 5.065-.351 1.837-.033 2.44 1.288 2.44 3.364 0 4.966-9.396 1.882-11.046-2.282-1.221-6.624-1.232-7.374-.019M94 53c.589 1.1 1.237 2 1.442 2 .204 0 .135-.9-.152-2-.288-1.1-.937-2-1.442-2-.507 0-.439.895.152 2m23.475 1.041c-.354.573-2.705.91-5.223.75l-4.579-.291-1.317 5c-2.002 7.601-1.639 12.54 1.599 21.713 1.625 4.604 3.248 10.206 3.607 12.447l.651 4.074 4.608-4.608 4.608-4.608-.307-7.358c-.169-4.047-.988-8.989-1.821-10.983-1.125-2.691-1.343-5.373-.848-10.401.643-6.519.397-7.96-.978-5.735m-2.462 64.209c.087 2.888.119 5.58.072 5.984-.047.404-1.868-.196-4.048-1.332-5.154-2.686-6.669-1.725-3.781 2.401 1.23 1.758 2.356 3.39 2.502 3.625.145.235 2.008-.552 4.139-1.75 7.473-4.2 18.874-2.098 24.005 4.425 4.757 6.047 4.948 13.572.574 22.638-1.304 2.705-1.809 4.45-1.121 3.879.847-.703 4.136-.734 10.198-.097 11.691 1.23 11.135 1.279 11.737-1.023.427-1.634 1.364-2 5.116-2 4.983 0 5.129-.132 3.501-3.173-.782-1.461-.785-2.349-.013-3.121 1.245-1.245 5.684 2.389 6.655 5.45.523 1.645.839 1.536 2.997-1.029 1.328-1.577 3.761-3.426 5.408-4.108 2.955-1.224 2.968-1.262.974-2.88-1.784-1.448-1.856-1.863-.614-3.558 1.292-1.764 1.782-1.814 6.039-.622 5.716 1.6 6.26 1.226 11.827-8.145 2.238-3.768 4.463-7.094 4.945-7.391.481-.298.875-.964.875-1.482 0-1.289-4.464-1.182-9.14.219-4.444 1.332-5.813.595-4.072-2.192 1.656-2.651 1.62-2.719-1.822-3.475-2.258-.496-4.328.01-8.092 1.978-5.963 3.117-9.233 3.024-9.701-.277-.283-1.995-.818-2.264-3.977-2-3.262.273-3.813.744-5.173 4.412-.838 2.258-2.141 4.845-2.895 5.75-1.881 2.253-6.436 2.067-8.625-.352-1.31-1.448-2.153-1.709-3.066-.952-.881.731-1.465.712-1.945-.066-.404-.653-2.81-.982-5.839-.798l-5.153.312-.277-5.5c-.432-8.561-.658-8.693-6.254-3.662l-5.024 4.517-4.609-4.927c-2.536-2.711-5.031-4.928-5.545-4.928-.515 0-.865 2.362-.778 5.25m-.252 9.812c-4.295 2.268-6.749 5.543-7.179 9.583-.212 1.98-1.011 3.015-2.691 3.486-1.315.368-1.885.714-1.266.769.619.055 1.409 1.52 1.756 3.255.877 4.386 2.498 6.191 4.252 4.735 1.766-1.466 1.748-4.986-.038-7.429-1.233-1.687-1.156-2.269.639-4.79 2.591-3.639 7.511-6.662 10.849-6.667 3.922-.006 4.238-1.131.889-3.167-1.661-1.01-3.122-1.817-3.246-1.793-.124.025-1.908.933-3.965 2.018m7.142 7.049c-5.165.763-10.491 3.202-11.178 5.118-.25.699-.07 2.021.401 2.938.702 1.368 1.354 1.478 3.635.617 2.271-.857 3.919-.589 9.009 1.467 7.204 2.91 8.073 1.918 3.19-3.644-2.698-3.073-2.852-3.568-1.371-4.397 2.999-1.678 1.034-2.797-3.686-2.099m30.969 6.553c-1.244 1.508-1.162 1.552.878.465 2.327-1.24 2.9-2.129 1.372-2.129-.482 0-1.495.749-2.25 1.664m-41.842 8.281c-.872 1.629-.512 2.339 2.214 4.374 6.628 4.947 11.205 6.044 7.325 1.757-1.696-1.874-1.648-1.946 1.513-2.256 4.852-.476 5.012-2.82.192-2.82-2.14 0-4.765-.661-5.833-1.468-2.651-2.006-4.18-1.889-5.411.413M94.5 187c-.34.55-.141 1 .441 1S96 187.55 96 187s-.198-1-.441-1-.719.45-1.059 1m80.089 4.828c-1.99 3.848-.32 5.217 2.016 1.653 1.196-1.826 1.38-2.896.629-3.647-.752-.752-1.528-.166-2.645 1.994m-92.466.801c-.659 1.446-1.041 2.786-.85 2.977.731.731 4.727-2.789 4.727-4.163 0-2.41-2.601-1.614-3.877 1.186m39.118-.643c-2.093 3.352-1.379 4.493 1.259 2.014 1.375-1.292 2.5-2.72 2.5-3.174 0-1.589-2.53-.808-3.759 1.16m22.76.512c-.736 1.375-1.116 2.72-.846 2.99.643.643 4.845-3.283 4.845-4.527 0-1.93-2.698-.893-3.999 1.537m-29.334 53.169c-.367.366-.667 2.405-.667 4.531 0 4.213 2.019 5.909 4.886 4.104 3.452-2.174 2.504-9.302-1.238-9.302-1.273 0-2.615.3-2.981.667"/><path fill="#1976D2" fill-opacity=".737" fill-rule="evenodd" d="M29 108c0 71.333.34 108 1 108 .55 0 1-.614 1-1.364 0-3.112 10.991-10.978 12.806-9.164.324.324-.258 2.023-1.293 3.775-2.83 4.792-2.649 17.18.323 21.988 2.463 3.984 3.865 4.765 8.557 4.765 3.58 0 7.19-2.774 8.668-6.661 1.389-3.653 1.139-11.924-.476-15.791-3.327-7.962-12.585-7.02-12.585 1.281 0 3.58-1.914 4.397-2.158.921-.305-4.325.227-6.194 2.434-8.557 1.972-2.111 2.919-2.338 8.354-1.997C66.063 205.849 72 212.053 72 222.3c0 10.628-8.372 17.266-21.598 17.124-7.536-.081-14.998-3.472-17.902-8.135-1.1-1.767-2.337-3.229-2.75-3.25-.413-.022-.75 6.261-.75 13.961v14h31.5c25.492 0 31.5-.253 31.5-1.326 0-.729 1.125-2.382 2.5-3.674 1.375-1.292 2.5-3.17 2.5-4.174 0-2.1-1.078-2.348-2.783-.643-.651.651-1.516.852-1.921.446-1.035-1.035 1.817-2.693 4.102-2.385 1.044.141 2.379 1.023 2.966 1.961.836 1.333.585 2.22-1.147 4.065-2.786 2.965-2.798 3.695-.048 2.976 1.72-.45 2.037-.224 1.531 1.093-.562 1.464.327 1.661 7.486 1.661 7.807 0 8.059-.071 6.469-1.829-3.577-3.953-.545-10.723 4.479-10.001 1.265.181 2.989 1.573 3.833 3.092 1.392 2.508 1.377 3.035-.17 5.75L120.093 256h7.454c5.114 0 7.453-.375 7.453-1.195 0-.658 1.183-2.431 2.63-3.941 1.704-1.779 2.401-3.341 1.979-4.44-.606-1.58-.786-1.574-2.63.095-1.769 1.601-1.979 1.617-1.979.155 0-2.121 4.559-3.285 6.513-1.663 2.113 1.754 1.865 2.983-1.263 6.261l-2.75 2.881 2.914-.726c2.454-.612 2.815-.466 2.282.923-.548 1.428.236 1.65 5.835 1.65 4.706 0 6.469-.361 6.469-1.326 0-.729 1.125-2.382 2.5-3.674 1.375-1.292 2.5-3.17 2.5-4.174 0-2.1-1.078-2.348-2.783-.643-.651.651-1.516.852-1.921.446-1.035-1.035 1.817-2.693 4.102-2.385 1.044.141 2.379 1.023 2.966 1.961.836 1.333.585 2.22-1.147 4.065-2.786 2.965-2.798 3.695-.048 2.976 1.72-.45 2.037-.224 1.531 1.093-.586 1.527 1.985 1.661 31.831 1.661H227v-27.07l-3.047 3.47c-8.654 9.857-29.149 9.14-36.364-1.272-3.789-5.467-3.665-13.342.295-18.809 1.586-2.189 4.466-4.732 6.401-5.65 3.508-1.665 11.1-2.226 14.17-1.048 2.562.983 4.758 6.134 4.029 9.452-.882 4.013-2.484 3.69-2.484-.502 0-8.881-10.478-8.713-12.956.208-3.142 11.316 1.14 21.221 9.176 21.221 4.867 0 8.188-3.09 9.818-9.135 1.382-5.127.605-13.72-1.631-18.044-.855-1.654-1.32-3.242-1.033-3.528 1.139-1.14 9.628 4.019 11.549 7.017l2.043 3.19.017-107.75L227 0h-34.262l.55 3.388c.991 6.106-1.046 11.67-7.18 19.612-3.186 4.125-6.37 9.253-7.076 11.396-1.813 5.502-.779 13.726 2.857 22.731 5.855 14.501 6.306 22.59 1.992 35.672-3.529 10.702-12.592 24.43-16.503 24.999-1.424.207-2.74 1.962-4.31 5.75-2.639 6.368-4.435 6.883-9.19 2.634-3.05-2.725-3.113-2.941-1.9-6.616.786-2.38.98-5.343.52-7.933-.404-2.273-.794-6.567-.866-9.543-.155-6.342-1.697-7.481-4.259-3.144-2.108 3.568-6.039 4.056-12.141 1.506-5.961-2.49-8.394-5.343-8.045-9.43.249-2.912-.033-3.523-1.622-3.526-3.827-.008-4.307-9.326-.992-19.281 2.326-6.983 1.889-12.883-1.164-15.711-1.425-1.321-2.298-2.875-1.941-3.453.358-.578.158-1.051-.444-1.051-.772 0-.789-.57-.059-1.934.569-1.064 1.035-3.144 1.035-4.623 0-2.312-.216-2.508-1.547-1.404-1.203.998-1.267 1.458-.29 2.062 1.505.93-1.448 4.669-4.663 5.902-1.858.713-1.798.861.832 2.08 2.696 1.25 2.732 1.349.737 2.087-1.152.426-3.462.501-5.134.167-2.346-.469-3.172-1.27-3.619-3.508-.319-1.596-1.476-3.528-2.571-4.295-1.095-.767-2.498-2.403-3.118-3.635-.62-1.233-1.802-2.455-2.627-2.716-1.142-.362-1.064.016.323 1.58 1.764 1.989 1.764 2.09 0 3.116-1.688.982-1.661 1.062.354 1.091 2.538.035 6.323 4.404 6.323 7.297 0 1.098-1.518 3.429-3.373 5.178-1.856 1.75-3.672 4.053-4.036 5.118-1.097 3.208-6.329 8.717-7.557 7.958-.77-.476-.288-1.81 1.504-4.16C98.006 59.504 94.999 56.648 90 62c-1.541 1.65-3.281 3-3.867 3-1.89 0-7.278-6.011-6.943-7.748.355-1.846 3.775-3.851 8.06-4.728 3.028-.619 3.574-2.595 1.25-4.524-.825-.685-1.5-2.655-1.5-4.379 0-1.724-.419-4.594-.93-6.378-.512-1.783-.582-3.243-.155-3.243 1.089 0 3.643 3.119 4.504 5.5.684 1.891.795 1.904 2.025.233.837-1.136 1.935-1.525 3.074-1.088 1.143.439 2.235.045 3.081-1.111.786-1.076 2.08-1.59 3.239-1.287 1.157.303 2.587-.263 3.573-1.414.903-1.055 2.08-1.647 2.616-1.317.535.331.973-.325.973-1.457 0-3.016 1.678-2.513 2.306.691.674 3.431-.678 5.016-2.787 3.266-1.317-1.093-1.47-1.052-.965.265.331.861 1.302 1.833 2.159 2.162 2.124.815 9.287-6.792 9.287-9.863 0-1.285.675-3.951 1.5-5.926 2.128-5.093 1.893-11.283-.582-15.286-1.591-2.576-1.75-3.368-.674-3.368 2.253 0 5.328 4.088 7.292 9.694 1.727 4.933 1.734 5.543.141 12.143-1.761 7.296-2.11 11.054-.712 7.663.785-1.904.873-1.88 1.83.5.74 1.841 1.144 2.105 1.534 1 .291-.825.48-2.4.422-3.5-.059-1.1-.027-3.246.071-4.769.154-2.397.501-2.688 2.585-2.165 1.324.332 3.422.061 4.663-.604l2.257-1.207-2.414-1.855-2.413-1.856 2.816-.022c2.987-.023 6.69 1.553 7.934 3.378.413.605 1.218 2.788 1.789 4.85C148.402 32.174 150 32.039 150 27c0-4.307.469-4.736 2.921-2.669.869.731 3.743 2.129 6.389 3.105 4.548 1.679 4.72 1.873 3.17 3.586-1.304 1.441-1.409 2.242-.513 3.915 1.37 2.561.594 4.063-2.099 4.063-3.149 0-1.919 3.434 1.365 3.814 4.085.472 5.796-.992 7.686-6.575 1.992-5.883 6.698-12.34 12.438-17.064C187.874 13.812 190 10.278 190 4.806V0H29zm71.393-78.418c.334.87.607 2.445.607 3.5 0 1.055.675 1.918 1.5 1.918 1.74 0 1.951-2.29.465-5.066-1.238-2.313-3.44-2.615-2.572-.352m13.214 2c-.939 2.446-.735 2.769.893 1.418 1.662-1.38 1.99-3 .607-3-.491 0-1.166.712-1.5 1.582m3.577 7.268c-3.189 2.603-3.36 4.15-.458 4.15.765 0 1.13-.423.811-.94-.32-.518.408-1.863 1.618-2.99 3.342-3.113 1.786-3.287-1.971-.22m15.363 2.075c-.315.508.801 2.421 2.478 4.25 3.698 4.032 6.417 12.658 5.601 17.764-.325 2.028-1.517 6.584-2.65 10.124C135.394 81.129 136.57 87 140.767 87c1.275 0 1.419-1.094.886-6.75-.512-5.425-.219-8.01 1.493-13.167 2.043-6.16 2.059-6.546.403-9.622-1.477-2.742-1.533-3.521-.387-5.394 1.159-1.897 1.104-2.362-.412-3.488-.963-.715-1.75-2.397-1.75-3.739s-.54-2.98-1.2-3.64c-1.415-1.415-6.431-1.605-7.253-.275m32.921 4.176c-.367 1.155-.172 2.595.433 3.2.799.799 1.099.225 1.099-2.101 0-3.694-.577-4.108-1.532-1.099m-10.389.482c.048 1.165.285 1.402.604.605.289-.722.253-1.585-.079-1.917-.332-.332-.568.258-.525 1.312m-60.715 5.053c3.036 3.037 3.416 5.35.886 5.394-1.597.028-1.586.126.119 1.117 2.022 1.175 3.586-.198 3.616-3.174.025-2.53-2.96-5.973-5.178-5.973-1.966 0-1.935.145.557 2.636m12.385 4.682c-.77 1.345-1.249 6.019-1.249 12.182 0 8.083.419 10.966 2.188 15.041 1.203 2.772 2.499 7.385 2.879 10.25.38 2.865 1.071 5.209 1.536 5.209 1.443 0 10.402-9.443 9.961-10.5-.862-2.066-2.341-18.308-2.39-26.25-.051-8.249-.547-9.248-3.626-7.301-.799.506-1.905.639-2.458.298-2.465-1.524-5.641-1.027-6.841 1.071M82.5 58c-.34.55-.34 1.45 0 2 .815 1.318 3.21 1.279 4.041-.067.396-.64-.08-.94-1.191-.75-1.068.183-1.744-.211-1.6-.933.3-1.501-.392-1.639-1.25-.25m80.5 3.393c0 .884.338 1.621.75 1.639.412.017 1.604.678 2.648 1.469 1.57 1.188 1.679 1.702.628 2.968-.699.842-2.341 1.531-3.648 1.531-1.875 0-2.378.533-2.378 2.519 0 2.158-.343 2.433-2.395 1.918-2.069-.519-2.558-.109-3.586 3.005-.8 2.423-1.724 3.516-2.819 3.332-1.006-.169-2.237.994-3.224 3.049-.878 1.828-2.166 3.676-2.863 4.107-.729.451 1.527 1.008 5.309 1.312 3.618.29 7.64 1.224 8.94 2.075 2.237 1.467 2.471 1.401 4.433-1.253C167.18 85.838 171 74.841 171 71.201c0-3.93-2.199-10.201-3.577-10.201-.692 0-1.971-.273-2.841-.607-1.038-.398-1.582-.055-1.582 1m-42.233 30.119c-2.033 1.382-4.928 4.613-6.433 7.181-2.276 3.884-2.806 6.145-3.156 13.471-.266 5.562-.792 8.575-1.429 8.181-.554-.342-4.555-.98-8.892-1.417-4.336-.437-9.297-1.5-11.024-2.362-3.906-1.948-3.833-1.954-3.833.299 0 3.131 3.978 7.151 9.489 9.588 7.097 3.138 10.055 7.562 7.623 11.4-.647 1.022-1.347 1.092-2.853.285-2.681-1.434-3.522-.352-1.724 2.216 1.464 2.089 2.004 5.646.859 5.646-.333 0-1.491-1.125-2.572-2.5-1.24-1.576-3.409-2.73-5.871-3.124-3.889-.622-3.896-.631-1.671-2.25 4.258-3.099 6.5-3.996 8.605-3.446 2.92.764 2.65-1.114-.52-3.607-3-2.36-7.365-2.772-7.365-.695 0 .757-.675 1.937-1.5 2.622-.825.685-1.5 2.022-1.5 2.971 0 1.38-.853 1.707-4.25 1.628-4.21-.098-4.253-.063-4.56 3.651-.267 3.224-.653 3.75-2.75 3.75-2.714 0-6.44 3.182-6.44 5.5 0 2.069 1.349 1.877 3.5-.5 1.144-1.264 3.08-2 5.262-2 2.349 0 3.3-.4 2.976-1.25-.809-2.127.987-5.445 3.271-6.042 2.02-.528 2.061-.443.583 1.19-2.27 2.509-2.072 2.774 2.529 3.391 5.947.798 7.164 2.55 1.714 2.467-5.591-.084-8.666 1.579-10.304 5.574-1.342 3.271-.97 9.67.562 9.67.477 0 1.733-1.687 2.792-3.75 2.421-4.716 6.692-7.25 12.219-7.25 3.341 0 4.029-.267 3.096-1.2-1.691-1.691-1.491-3.8.359-3.8.857 0 1.269.469.914 1.043-.354.574.454 2.486 1.797 4.25 2.096 2.753 6.73 10.981 6.73 11.95 0 .178-1.237.269-2.75.203-1.765-.077-2.872-.749-3.091-1.876-.252-1.298-.904-1.58-2.5-1.082-1.188.37-3.172.915-4.409 1.209-2.497.595-2.749 1.502-1.215 4.369 1.291 2.412 3.131 2.562 2.264.184-.556-1.524-.338-1.492 1.688.25l2.327 2-.563-2.25c-.638-2.547.711-3.094 1.643-.667.334.871 1.169 1.378 1.857 1.127.687-.25 2.298.5 3.58 1.667l2.332 2.123-.717-2.858c-.687-2.737-.62-2.805 1.589-1.623 1.955 1.046 2.504.965 3.597-.531 1.692-2.314.544-4.532-5.688-10.988-4.169-4.319-4.653-5.232-3.558-6.705 1.135-1.525 1.452-1.29 3.005 2.229 3.583 8.122 13.181 12.569 21.919 10.156 2.545-.703 4.048-.635 5.363.242 1.005.67 4.679 1.729 8.164 2.353 5.701 1.022 6.704.938 10-.837 2.349-1.265 4.631-1.762 6.361-1.387 2.459.533 2.68.336 2.5-2.233-.189-2.685.026-2.832 4.552-3.123 4.889-.313 5.475-.971 3.747-4.2-2.069-3.867.986-2.978 3.662 1.066l2.735 4.132 2.553-3.07c1.404-1.689 4.34-3.805 6.525-4.703l3.971-1.632-2.685-1.407c-1.711-.896-2.478-1.946-2.115-2.894.69-1.797 2.629-1.88 7-.299 4.068 1.471 5.97.015 10.846-8.305 1.819-3.103 4.128-6.895 5.132-8.428l1.826-2.786-7.879.666-7.879.666 1.866-2.062c1.596-1.764 1.655-2.194.405-2.985-2.434-1.539-7.814-1.069-11.96 1.046-5.487 2.799-8 2.642-8-.5 0-1.955-.49-2.478-2.25-2.4-5.059.224-7.012 1.453-8.627 5.431-.892 2.199-1.987 4.554-2.432 5.234-1.23 1.878-5.113 1.478-8.046-.83-1.444-1.136-3.006-1.83-3.471-1.543-.465.288-2.157.131-3.76-.349-2.441-.73-2.551-.885-.677-.957 4.377-.168 6.148-8.762 4.425-21.474l-.662-4.887-3.239 5.011c-1.782 2.755-4.819 6.215-6.75 7.688-4.419 3.371-4.629 2.159-.261-1.504 1.787-1.499 2.987-2.994 2.667-3.322-1.036-1.061-11.761-2.872-13.364-2.257-1.824.7-1.999 4.08-.444 8.542.913 2.618 1.489 3.066 3.25 2.526 2.038-.626 2.023-.529-.328 2.015l-2.47 2.672-1.382-3.798c-.84-2.306-1.441-8.412-1.531-15.545-.081-6.461-.381-11.749-.666-11.75-.285-.002-2.181 1.128-4.215 2.509m-16.729 2.238c-2.459 8.736-2.394 10.826.508 16.157 1.525 2.801 3.204 5.093 3.731 5.093.589 0 .708-3.378.308-8.75-.881-11.83-1.595-16.25-2.626-16.25-.476 0-1.34 1.688-1.921 3.75M112 122.393c0 .216.675.652 1.5.969.825.316 1.5.139 1.5-.393 0-.533-.675-.969-1.5-.969s-1.5.177-1.5.393m26.39 22.339c-.104 6.406-.04 6.607 1.205 3.768 1.681-3.835 1.731-6.672.155-8.827-1.048-1.433-1.268-.616-1.36 5.059M97 157.5c-1.375.786-3.989 1.445-5.809 1.465-2.173.023-3.072.418-2.62 1.15 1.114 1.803 9.361.397 11.763-2.005 2.518-2.518.613-2.866-3.334-.61m22.323 9.101c-.766 1.995 2.046 4.399 5.144 4.399 1.146 0 4.772-1.373 8.058-3.051 5.188-2.648 5.514-2.97 2.475-2.443-8.745 1.517-10.916 1.609-12.904.545-1.745-.934-2.242-.835-2.773.55m-46.25 5.845c-4.259 3.142-8.008 8.687-9.72 14.376-1.868 6.207-1.689 10.114.636 13.928 2.652 4.349 5.875 4.271 10.893-.263 2.23-2.014 4.509-3.274 5.343-2.954.8.307 2.024-.128 2.721-.968 1.117-1.346 1.475-1.267 3.044.671l1.778 2.196 3.727-3.727c3.355-3.355 3.666-3.484 3.117-1.296-1.229 4.898 2.443 7.639 5.423 4.049.926-1.116 1.582-1.24 2.373-.449.79.791 2.145-.097 4.9-3.208 3.119-3.523 3.673-3.849 3.06-1.801-2.162 7.223.495 10.228 5.031 5.692 1.833-1.833 2.742-2.164 3.627-1.319.882.842 1.446.722 2.228-.473.946-1.447 1.225-1.421 2.91.264 1.742 1.742 2.026 1.758 4.35.235 1.521-.997 2.486-1.196 2.486-.514 0 2.088 2.348 1.122 5.004-2.059 2.955-3.54 6.657-3.483 5.524.085-.767 2.416 1.082 3.658 3.035 2.037 1.183-.982 1.847-.887 3.356.479 1.234 1.116 2.109 1.336 2.541.638 1.251-2.024 2.576-1.057 1.953 1.426-.463 1.843-.162 2.668 1.158 3.175 1.329.51 3.013-.653 6.606-4.561 2.653-2.884 4.813-5.776 4.801-6.425-.012-.649-2.04 1.029-4.507 3.73-2.466 2.7-4.708 4.686-4.982 4.412-.966-.966 1.93-7.398 6.195-13.758 4.54-6.77 5.265-9.064 2.865-9.064-.798 0-3.106 2.959-5.129 6.576-3.966 7.092-8.047 12.424-9.509 12.424-.501 0-.911-1.548-.911-3.441 0-4.258-1.361-5.207-4.509-3.145-3.305 2.165-4.485 1.992-4.524-.664l-.034-2.25-1.716 2.054a91.94 91.94 0 0 0-3.467 4.5L133 195.5l.611-3.75c.674-4.13-1.005-5.295-2.162-1.5-.778 2.552-3.338 5.75-4.604 5.75-.465 0-.845-1.527-.845-3.393 0-5.744-2.554-5.41-8.585 1.124-5.683 6.158-6.753 5.655-3.78-1.776 2.33-5.823.614-6.871-3.884-2.373-2.849 2.85-3.499 3.171-3.067 1.517.833-3.186-1.144-2.512-3.738 1.275-2.932 4.278-5.946 6.341-5.946 4.069 0-.866.481-2.474 1.069-3.573.763-1.424.758-2.374-.017-3.307-.598-.72-.823-1.996-.501-2.835.322-.839.085-1.835-.527-2.213-1.712-1.058-4.159 1.545-3.828 4.073.298 2.274-3.299 7.412-5.189 7.412-.554 0-1.007-1.548-1.007-3.441 0-5.697-1.915-5.416-7.939 1.166-7.213 7.882-9.623 9.158-12.278 6.502-4.198-4.198-1.825-15.757 4.667-22.728 2.953-3.171 4.981-4.499 6.87-4.499 3.458 0 3.515 2.307.18 7.215-2.99 4.399-3.346 6.861-.639 4.41 2.911-2.633 5.474-9.153 4.744-12.063-.852-3.393-5.021-3.444-9.532-.116M111 171.5c-1.375.786-4.488 1.445-6.917 1.465-5.36.043-4.831 1.006.916 1.666 2.793.321 4.97-.036 6.556-1.075 1.306-.856 3.039-1.556 3.851-1.556.812 0 1.754-.45 2.094-1 .923-1.494-3.624-1.144-6.5.5m71.701 9.46c-2.481 5.394-3.681 6.969-5.336 7-2.554.048-5.365 3.98-5.365 7.505 0 2.924 1.162 3.251 3.128.879 1.238-1.495 1.421-1.381 1.872 1.167.674 3.809 2.428 4.152 5.505 1.075 2.174-2.174 2.854-2.379 4.495-1.354 1.599.999 2.404.857 4.654-.823 1.496-1.117 2.922-2.678 3.17-3.47.265-.846-.56-.512-2.001.811-1.349 1.238-2.985 2.25-3.637 2.25-1.871 0-1.385-2.385.881-4.326 1.137-.973 1.887-2.311 1.667-2.972-.746-2.238-3.144-1.219-5.407 2.298-4.15 6.446-5.414 8-6.505 8-1.989 0-.042-6.879 4.542-16.05 3.251-6.504 4.073-8.95 3.006-8.95-.843 0-2.83 2.961-4.669 6.96m-98.688 24.777c-3.693.69-7.706 3.904-8.419 6.743-.832 3.318 1.849 9.562 4.393 10.227 1.107.289 2.013.686 2.013.88 0 .195-2.671 3.906-5.935 8.247-6.33 8.416-11.264 12.098-17.315 12.92-4.851.659-4.795 2.616.116 4.088 12.019 3.601 21.733-2.24 29.389-17.672l4.329-8.724-3.042-1.987C84.171 216.952 85.638 209 91.655 209H94v14c0 11.778-.238 14-1.5 14-.825 0-1.5.45-1.5 1 0 .583 3.333 1 8 1 7.406 0 10.102-.979 6.5-2.362-1.229-.471-1.5-2.966-1.5-13.792 0-12.194.168-13.396 2.174-15.532l2.175-2.314-10.925.136c-6.008.075-12.043.345-13.411.601m27.237.655c1.476 1.121 1.752 3.031 1.765 12.218.009 6.698.496 11.841 1.264 13.36 4.361 8.617 20.865 10.401 27.148 2.934 2.45-2.911 2.573-3.629 2.573-15.012 0-9.704.282-12.063 1.5-12.53 3.082-1.183 1.335-2.362-3.5-2.362-4.902 0-6.573 1.182-3.395 2.402 1.378.529 1.555 2.301 1.25 12.502-.415 13.908-1.499 16.096-7.971 16.096-7.036 0-8.884-3.985-8.884-19.156 0-6.995.322-9.03 1.5-9.482 3.646-1.4.865-2.36-6.75-2.33-7.075.027-8.001.221-6.5 1.36m40.095.437c2.355 2.602 2.496 30.171.155 30.171-.825 0-1.5.45-1.5 1 0 .583 3.333 1 8 1 7.406 0 10.102-.979 6.5-2.362-1.231-.472-1.5-3.001-1.5-14.107 0-13.468.011-13.531 2.309-13.531 4.062 0 5.872 2.147 5.514 6.54-.266 3.264-.853 4.216-3.335 5.416l-3.012 1.455 3.919 7.545c5.458 10.506 8.83 14.479 14.823 17.465 5.579 2.78 10.286 3.162 15.707 1.273 4.567-1.592 5.203-3.694 1.118-3.694-6.096 0-14.307-6.124-19.665-14.668-.977-1.557-2.652-3.698-3.723-4.756-1.927-1.906-1.926-1.932.093-2.678 5.323-1.97 6.967-9.938 2.849-13.807-3.228-3.033-8.176-4.039-20.002-4.067-9.533-.023-9.843.045-8.25 1.805"/></svg>