<svg xmlns="http://www.w3.org/2000/svg" width="256" height="256"><path fill="#1976D2" fill-opacity=".016" fill-rule="evenodd" d="M0 128.004v128.004l128.25-.254 128.25-.254.254-127.75L257.008 0H0zm.485.496c0 70.4.119 99.053.265 63.672.146-35.38.146-92.98 0-128C.604 29.153.485 58.1.485 128.5"/><path fill="#1976D2" fill-opacity=".175" fill-rule="evenodd" d="M40.745 41.755 5 77.51v101.027l36.282 36.231L77.564 251h100.792l35.822-35.719L250 179.562V77.49l-35.755-35.745L178.49 6h-102zM197.926 86.25c-.041.138-2.218 9.362-4.838 20.5L188.325 127H197.544l4.37-19.25c2.402-10.588 4.578-19.812 4.834-20.5.331-.887-.874-1.25-4.141-1.25-2.534 0-4.641.112-4.681.25M28.5 88.436C23.056 90.45 19 95.123 19 99.381c0 4.752 3.151 8.165 9.773 10.587C39.789 113.998 40 114.122 40 116.586c0 5.268-11.566 6.504-19.478 2.082-4.882-2.729-4.625-2.898-5.998 3.951-.604 3.011-.471 3.157 3.868 4.25 2.472.622 7.782 1.121 11.801 1.109C42.467 127.941 50 122.936 50 114.817c0-5.042-3.024-7.94-10.747-10.298-3.164-.965-6.766-2.388-8.003-3.16-2.761-1.724-2.921-4.929-.316-6.324 3.289-1.76 11.789-1.217 16.203 1.035 2.231 1.138 4.187 1.926 4.346 1.75.159-.176.594-2.173.968-4.438.843-5.104.209-5.436-11.451-6.008-5.938-.292-9.706.029-12.5 1.062m35.864 9.279c-2.583.325-3.245.942-3.757 3.5-.341 1.707-.475 3.25-.298 3.428.178.177 1.866-.12 3.751-.66 5.002-1.435 10.513-1.202 11.929.504 2.307 2.78.453 4.183-6.371 4.82C58.885 110.309 54 114.018 54 121.166c0 2.711.603 4.143 2.223 5.277 2.888 2.023 9.044 1.988 13.033-.075 2.182-1.129 3.272-1.283 3.533-.5.208.623 2.328 1.132 4.712 1.132h4.335l2.252-9.75c3.535-15.302 3.184-17.198-3.588-19.4-2.156-.701-11.048-.776-16.136-.135m46.386 1.299c-3.136 1.701-3.75 1.784-3.75.51 0-2.349-8.694-2.139-9.352.226-.267.963-1.669 6.925-3.115 13.25-1.446 6.325-2.819 12.063-3.05 12.75-.297.883.968 1.25 4.311 1.25h4.73l2.28-10.217c2.299-10.306 2.862-11.312 6.944-12.4 4.468-1.19 5.588.154 4.904 5.888-.343 2.876-1.27 7.84-2.06 11.031l-1.436 5.801 4.658-.301 4.658-.302 2.323-10.116c1.994-8.682 2.676-10.277 4.811-11.25 3.561-1.623 6.355-1.4 7.109.567.589 1.532-1.841 15.859-3.361 19.819-.52 1.354.128 1.553 4.217 1.29l4.831-.31 2.253-9.5c3.62-15.259 2.979-18.536-3.845-19.643-2.873-.467-4.735-.011-8.457 2.069l-4.773 2.668-1.597-2.116c-2.318-3.074-8.51-3.525-13.233-.964m57.855.128c-3.238 1.708-3.791 1.785-3.281.456.509-1.327-.2-1.598-4.184-1.598h-4.797l-1.183 5.25a3380.398 3380.398 0 0 1-4.284 18.5l-3.1 13.25H14v5h228v-5h-41.833c-23.009 0-42.08-.247-42.382-.548-.301-.302-.1-2.315.448-4.474.898-3.537 1.198-3.818 3.025-2.84 1.116.597 4.457.885 7.425.638 4.631-.384 5.963-1.001 9.4-4.357 7.125-6.958 8.778-18.649 3.396-24.031-2.977-2.977-7.53-3.064-12.874-.246m49.816-.246c-7.008 3.183-11.304 11.273-10.06 18.942 1.203 7.409 6.897 10.578 17.87 9.943 8.435-.489 10.075-1.375 11.164-6.031.753-3.218.873-3.178-3.741-1.25-7.417 3.099-16.654.563-16.654-4.573 0-1.79.81-1.927 11.383-1.927 10.96 0 11.406-.084 11.987-2.25 1.561-5.826-.228-11.108-4.515-13.325-3.839-1.985-12.543-1.75-17.434.471m-51.384 5.214c-1.355.541-2.645 1.165-2.867 1.387-.797.797-3.887 15.453-3.368 15.972 1.403 1.403 7.983.38 10.071-1.565 4.633-4.316 5.674-12.707 1.904-15.347-2.531-1.773-2.436-1.766-5.74-.447m53.137 1.204c-1.196 1.273-2.174 2.623-2.174 3 0 .378 3.15.686 7 .686 6.074 0 7-.238 7-1.8 0-4.659-8.019-5.937-11.826-1.886m-153.836 9.685c-2.288.922-3.89 4.299-2.844 5.992.741 1.198 7.462 1.324 9.274.173.698-.442 1.679-2.235 2.18-3.984.909-3.169.899-3.18-2.768-3.117-2.024.035-4.653.456-5.842.936m-26 39c-5.334 2.15-3.256 8.231 3.227 9.447 1.889.355 3.435 1.088 3.435 1.631 0 1.708-3.047 2.244-6.588 1.157-3.002-.921-3.412-.832-3.412.743 0 3.324 9.351 4.179 13.04 1.192 1.747-1.415 2.11-2.436 1.594-4.49-.533-2.126-1.565-2.885-5.15-3.787-2.466-.621-4.484-1.54-4.484-2.042 0-1.627 3.223-2.204 6.147-1.1 2.482.936 2.853.841 2.853-.73 0-2.914-5.747-4.003-10.662-2.021m17.117 1.456c-2.956 2.955-3.285 8.308-.705 11.465 3.222 3.942 14.25 4.057 14.25.148 0-1.68-.332-1.769-2.93-.789-3.441 1.3-8.07-.282-8.07-2.758 0-1.192 1.296-1.521 6-1.521 5.378 0 6-.212 6-2.045 0-3.354-4.402-6.955-8.5-6.955-2.479 0-4.351.76-6.045 2.455m50.18-.382c-2.126 1.672-2.635 2.913-2.635 6.427s.509 4.755 2.635 6.427c5.972 4.698 14.365.943 14.365-6.427 0-7.37-8.393-11.125-14.365-6.427m67.226-.161c-3.385 2.74-3.385 10.436 0 13.176 2.657 2.152 7.187 2.482 10.455.762 3.07-1.616 3.653-2.789 3.653-7.35s-.583-5.734-3.653-7.35c-3.268-1.72-7.798-1.39-10.455.762m56.186-.962c-.799.505-2.712.667-4.25.359L224 153.75v7.625c0 6.893.187 7.625 1.95 7.625 1.673 0 1.993-.818 2.25-5.75.295-5.656.349-5.75 3.3-5.75 2.951 0 3.005.094 3.3 5.75.257 4.932.577 5.75 2.25 5.75 1.742 0 1.95-.725 1.95-6.8 0-3.956-.502-7.302-1.2-8-1.419-1.419-4.712-1.542-6.753-.25M17 160.8c0 3.956.502 7.302 1.2 8 1.42 1.42 6.433 1.603 7.259.266.318-.514 2.144-.68 4.059-.369l3.482.565v-7.631c0-7.432-.064-7.631-2.45-7.631-2.281 0-2.471.396-2.75 5.75-.271 5.198-.529 5.782-2.687 6.087-3.099.439-4.079-1.256-4.098-7.087-.013-4.078-.298-4.75-2.015-4.75-1.804 0-2 .667-2 6.8m68-5.938c0 .475 1.292 3.995 2.87 7.824 2.61 6.327 2.743 7.205 1.469 9.637-1.361 2.598-1.32 2.677 1.383 2.677 2.511 0 3.049-.667 5.441-6.75 1.46-3.713 3.376-8.437 4.259-10.5 1.603-3.746 1.602-3.75-.828-3.75-2.032 0-2.707.825-4.097 5.008-.914 2.754-2.014 4.791-2.443 4.526-.429-.266-1.35-2.519-2.047-5.008-1.046-3.738-1.679-4.526-3.637-4.526-1.303 0-2.37.388-2.37.862m41.015 4.388c.021 7.565 1.683 10.318 6.028 9.985 1.901-.146 4.92-.259 6.707-.251l3.25.015v-7.5c0-6.768-.19-7.499-1.95-7.499-1.673 0-1.993.818-2.25 5.75-.295 5.656-.349 5.75-3.3 5.75-2.951 0-3.005-.094-3.3-5.75-.279-5.354-.469-5.75-2.75-5.75-2.291 0-2.449.341-2.435 5.25M148 161.5c0 7.333.056 7.5 2.5 7.5 2.364 0 2.5-.3 2.5-5.5 0-5.444.03-5.5 3-5.5 2.333 0 3-.444 3-2 0-2.255-2.867-2.733-4.8-.8-.933.933-1.2.933-1.2 0 0-.66-1.125-1.2-2.5-1.2-2.444 0-2.5.167-2.5 7.5m45-6.927c0 .391.919 3.797 2.042 7.569 1.908 6.406 2.231 6.858 4.908 6.858 2.601 0 2.983-.462 4.147-5 .704-2.75 1.561-5 1.903-5 .342 0 1.199 2.25 1.903 5 1.164 4.538 1.546 5 4.147 5 2.677 0 3-.452 4.908-6.858 2.525-8.478 2.528-8.35-.208-7.962-1.811.258-2.429 1.246-3.168 5.07-.504 2.613-1.25 4.75-1.657 4.75-.407 0-1.322-2.271-2.034-5.047-1.15-4.488-1.565-5.014-3.744-4.75-1.984.241-2.718 1.22-3.86 5.153-1.589 5.474-2.328 5.344-3.831-.676-.785-3.144-1.59-4.259-3.25-4.5-1.213-.175-2.206.001-2.206.393m-131.75 2.089C58.504 157.77 60.007 160 63.5 160c2.325 0 3.5-.468 3.5-1.393 0-2.049-2.987-3.06-5.75-1.945m48.724 1.907c-1.989 5.23 1.925 10.419 5.574 7.391 1.756-1.457 1.918-7.094.252-8.76-2.016-2.016-4.787-1.365-5.826 1.369M178.2 157.2c-1.666 1.666-1.504 7.303.252 8.76 2.199 1.825 4.895.839 5.956-2.179 1.843-5.241-2.716-10.073-6.208-6.581"/><path fill="#1976D2" fill-opacity=".391" fill-rule="evenodd" d="M41.745 41.755 6 77.51v101.869l35.231 35.31L76.462 250H178.49l35.755-35.745L250 178.51V77.49l-35.755-35.745L178.49 6h-101zm151.288 63.495c-2.406 10.588-4.575 20.037-4.82 21-.38 1.49.285 1.75 4.476 1.75h4.922l4.276-18.75a9739.763 9739.763 0 0 1 4.803-21c.491-2.099.198-2.25-4.378-2.25h-4.905zM27.245 88.493C21.87 90.829 19 94.673 19 99.535c0 5.974 2.256 8.207 11.434 11.321 9.021 3.06 10.939 4.97 8.119 8.085-2.771 3.062-10.653 2.81-17.408-.556-2.887-1.438-5.408-2.451-5.603-2.25-.195.201-.669 2.473-1.052 5.049l-.697 4.683 4.353 1.227c11.255 3.172 25.72.712 29.841-5.076 2.994-4.204 2.765-11.281-.446-13.807-2.429-1.91-3.388-2.336-12.865-5.714-5.744-2.047-6.892-4.094-3.732-6.653 3.081-2.494 10.503-2.42 15.556.156 5.008 2.553 5.156 2.535 5.939-.75.361-1.513.881-3.51 1.157-4.44.377-1.273-.436-1.949-3.298-2.744-5.444-1.512-19.177-1.258-23.053.427M63.5 97.732c-2.535.633-3.465 2.078-3.485 5.408L60 105.781l4.916-1.441c5.515-1.617 11.385-.733 11.87 1.788.222 1.151-1.481 1.777-7.283 2.679-9.12 1.418-12.967 3.256-14.986 7.16-2.119 4.097-1.899 6.477.897 9.727 2.017 2.344 3.158 2.79 6.938 2.712 2.488-.052 5.661-.84 7.051-1.75 3.026-1.983 3.678-2.062 3.347-.406-.165.825 1.336 1.352 4.412 1.551l4.661.301 2.691-11.573c1.489-6.403 2.416-12.672 2.074-14.033-.947-3.775-5.402-5.513-13.788-5.38-4.015.064-8.2.341-9.3.616m47.121.908c-2.126 1.151-3.068 1.255-3.599.395-.424-.686-2.519-1.035-5.091-.85l-4.371.315-2.704 11.5c-1.488 6.325-2.989 12.988-3.336 14.807l-.632 3.307 4.806-.307 4.806-.307 2.535-10.5c2.231-9.236 2.86-10.656 5.231-11.795 1.992-.958 3.223-1.014 4.715-.215 2.499 1.337 2.5 2.446.012 12.823-1.096 4.573-1.993 8.76-1.993 9.305 0 .558 2.056.858 4.701.687l4.7-.305 2.6-10.5c2.271-9.177 2.937-10.663 5.28-11.795 1.981-.958 3.208-1.014 4.7-.215 2.494 1.335 2.495 1.892.019 12.51-1.1 4.718-2 9.035-2 9.594 0 .587 1.994.887 4.732.711l4.733-.305 2.732-11.5c2.774-11.674 2.778-14.12.03-17.25-2.184-2.487-8.813-2.235-13.677.52l-3.951 2.238-2.254-2.254c-2.693-2.693-8.38-2.968-12.724-.614m58.129-.068c-1.593.864-2.75 1.058-2.75.46 0-.569-2.2-1.032-4.903-1.032h-4.904l-3.688 15.75c-2.029 8.662-3.921 16.759-4.204 17.993l-.514 2.243-67.144.257-67.143.257-.316 2.75-.317 2.75h230.266l-.317-2.75-.316-2.75-42.373-.261-42.373-.261.634-3.166c.348-1.741.766-3.299.929-3.462.162-.163 2.045.187 4.183.777 7.615 2.103 15.164-2.062 19.116-10.548 5.055-10.856 1.748-20.623-6.955-20.539-2.289.022-5.399.711-6.911 1.532m49.75-.155c-3.727 1.664-8.031 6.179-9.436 9.898-1.404 3.714-1.352 9.958.108 13.163 2.57 5.641 11.844 8.491 21.265 6.535 6.262-1.3 6.128-1.18 7.101-6.363l.719-3.834-2.878 1.471c-4.653 2.379-9.1 2.96-12.945 1.691-3.302-1.09-5.833-4.402-4.758-6.228.243-.412 5.317-.75 11.276-.75 12.069 0 12.048.012 12.048-7.159 0-3.082-.668-4.663-2.923-6.918-2.671-2.671-3.513-2.92-9.75-2.884-3.755.022-8.177.642-9.827 1.378m2.689 6.622c-3.533 3.291-2.697 4.081 3.982 3.759 6.509-.314 7.997-1.488 5.302-4.182-2.226-2.227-6.657-2.025-9.284.423m-55.533.223c-1.573 1.151-4.534 10.755-4.62 14.988-.062 3.019 6.549 2.318 9.92-1.052 3.236-3.236 4.804-9.909 3.084-13.123-1.271-2.375-5.665-2.801-8.384-.813M67 115.294c-1.651.835-2.5 2.104-2.5 3.736 0 2.046.547 2.523 3.191 2.779C71.338 122.162 75 119.252 75 116c0-2.376-4.001-2.729-8-.706m-51 43.917c0 9.301 1.238 10.609 9.99 10.554l7.01-.044v-8.36c0-8.208-.045-8.361-2.452-8.361-2.31 0-2.47.363-2.75 6.25-.282 5.921-.43 6.25-2.798 6.25-2.333 0-2.533-.4-3-6-.472-5.658-.657-6.018-3.25-6.316-2.744-.316-2.75-.304-2.75 6.027m23.25-4.688c-2.456 1.736-2.987 5.621-.994 7.274.69.573 2.603 1.366 4.25 1.761 1.647.395 3.38.938 3.851 1.205 1.483.843-1.762 2.218-3.857 1.635-1.1-.306-2.824-.788-3.832-1.071-1.456-.408-1.764-.033-1.5 1.83.295 2.078.938 2.378 5.691 2.649 6.011.343 9.141-1.485 9.141-5.339 0-2.752-1.744-4.266-5.866-5.09-1.747-.35-3.398-.995-3.669-1.434-.857-1.386 3.156-2.038 5.968-.968 3.649 1.387 3.752 1.35 3.387-1.225-.277-1.944-.999-2.289-5.32-2.534-3.347-.19-5.744.242-7.25 1.307m17.924.791c-1.505 1.602-2.174 3.581-2.174 6.428 0 5.355 3.358 8.258 9.553 8.258 5.631 0 7.447-.784 7.447-3.214 0-1.419-.463-1.822-1.593-1.389-4.416 1.695-6.145 1.633-8.47-.302l-2.437-2.028 6.25-.034L72 163v-3c0-4.394-3.099-7-8.326-7-3.228 0-4.877.587-6.5 2.314M84 153.206c0 .187 1.377 3.915 3.06 8.285 2.944 7.647 3.072 8.804 1.416 12.839-.64 1.558-.324 1.78 2.129 1.5 2.623-.301 3.254-1.225 7.062-10.33 2.3-5.5 4.216-10.562 4.257-11.25.042-.687-1.013-1.25-2.344-1.25-2.019 0-2.697.837-4.102 5.065-.925 2.785-1.966 4.781-2.313 4.433-.347-.347-1.324-2.513-2.171-4.814-1.229-3.34-2.09-4.248-4.267-4.5-1.5-.174-2.727-.164-2.727.022m23.025 1.769c-2.732 2.732-3.482 6.508-2.001 10.083 1.541 3.721 3.7 4.942 8.736 4.942 5.227 0 8.24-3.159 8.24-8.64 0-5.424-3.096-8.36-8.814-8.36-2.835 0-4.823.637-6.161 1.975M126 159.929c0 9.044.861 9.893 9.976 9.836l7.024-.044v-16.854l-2.75.317c-2.607.3-2.766.618-3.051 6.117-.218 4.188-.745 5.971-1.895 6.413-2.434.934-4.304-2.5-4.304-7.905 0-4.463-.18-4.809-2.5-4.809-2.426 0-2.5.205-2.5 6.929m22 1.571c0 8.354.042 8.5 2.45 8.5 2.281 0 2.471-.396 2.75-5.75.297-5.685.337-5.754 3.55-6.063 2.692-.26 3.25-.732 3.25-2.75 0-2.692-1.056-3.012-4.268-1.294-1.603.858-2.232.858-2.518 0-.209-.628-1.468-1.143-2.797-1.143-2.366 0-2.417.178-2.417 8.5m26.455-6.045c-3.094 3.093-3.26 8.252-.382 11.91 2.884 3.667 9.892 3.761 13.472.18C193.148 161.943 189.123 153 181 153c-3.01 0-4.739.648-6.545 2.455m17.827-1.162c.307.798 1.513 4.659 2.68 8.579 1.991 6.685 2.301 7.128 4.988 7.128 2.601 0 2.983-.462 4.147-5 .704-2.75 1.561-5 1.903-5 .342 0 1.199 2.25 1.903 5 1.164 4.54 1.546 5 4.149 5 2.669 0 3.011-.467 4.936-6.75 1.138-3.713 2.322-7.571 2.632-8.575.465-1.509.081-1.769-2.221-1.5-2.249.263-2.947.997-3.634 3.825-1.582 6.507-1.948 6.658-3.633 1.5-1.356-4.154-2.037-5-4.027-5-2.004 0-2.627.794-3.811 4.856-.779 2.67-1.623 4.648-1.876 4.395-.254-.253-1.031-2.438-1.728-4.856-1.072-3.72-1.704-4.446-4.116-4.725-2.158-.249-2.714.023-2.292 1.123m31.07.231c-.247.646-.316 4.28-.151 8.075.289 6.668.39 6.912 3 7.213 2.655.306 2.705.206 3-6 .267-5.633.536-6.346 2.5-6.625 2.042-.291 2.222.14 2.5 6 .287 6.058.41 6.326 3.049 6.629l2.75.317v-6.995c0-9.078-.914-10.02-9.595-9.888-4.048.061-6.776.554-7.053 1.274m-161.623 2.568C59.492 158.394 60.41 160 63.392 160c2.954 0 3.869-.981 2.477-2.658-1.317-1.586-1.795-1.615-4.14-.25m49.471.108c-1.952 1.952-1.483 7.578.731 8.763 4.01 2.146 6.96-4.929 3.498-8.392-1.886-1.886-2.648-1.952-4.229-.371m68.227-.435c-2.869 1.965-2.638 8.556.341 9.699 3.569 1.37 6.067-5.548 3.235-8.961-1.394-1.679-2.014-1.807-3.576-.738"/><path fill="#1976D2" fill-opacity=".437" fill-rule="evenodd" d="M41.745 41.755 6 77.51v101l35.755 35.745L77.51 250h100.98l35.755-35.745L250 178.51V77.609l-35.823-35.805L178.354 6H77.49zm155.734 44.279C196.716 87.268 188 124.56 188 126.59c0 1.022 1.353 1.41 4.919 1.41h4.919l3.677-15.75c2.021-8.662 4.258-18.087 4.971-20.943.712-2.856 1.044-5.444.738-5.75-.988-.988-9.085-.591-9.745.477m-167.73 1.379c-7.754 2.086-12.469 7.936-11.322 14.049.857 4.566 4.102 7.157 12.577 10.039 7.953 2.705 9.383 3.907 7.914 6.652-2.129 3.978-13.732 3.252-20.062-1.255l-2.854-2.033-.852 2.318c-.469 1.274-1.126 3.742-1.46 5.484-.551 2.878-.314 3.27 2.602 4.308 5.318 1.893 15.976 2.4 21.677 1.033 9.745-2.338 15.008-9.822 12.005-17.072-1.437-3.467-4.341-5.188-13.568-8.038-6.043-1.866-6.504-2.211-6.217-4.641.231-1.946 1.087-2.84 3.311-3.455 3.955-1.093 10.184-.083 14.376 2.334 1.857 1.07 3.584 1.737 3.839 1.482.855-.855 2.329-8.737 1.795-9.601-.752-1.218-9.846-3.029-14.809-2.95-2.311.038-6.339.643-8.952 1.346m35.363 9.61c-2.414.506-4.491 1.045-4.617 1.198-.127.154-.546 2.027-.933 4.164-.674 3.724-.607 3.855 1.617 3.167 4.863-1.506 12.803-1.812 14.319-.553 2.572 2.134 1.715 2.703-5.129 3.404-3.647.374-8.071 1.281-9.832 2.017-8.273 3.457-10.321 13.572-3.465 17.117 3.628 1.877 7.661 1.851 11.35-.073 2.035-1.061 3.128-1.193 3.597-.433.384.621 2.763.957 5.526.78l4.852-.311 2.339-10c2.833-12.114 2.674-16.129-.736-18.647-3.002-2.217-12.604-3.147-18.888-1.83m48.187.063c-1.76.52-3.474 1.389-3.809 1.93-.966 1.564-2.487 1.14-1.852-.516.465-1.211-.396-1.5-4.472-1.5-2.776 0-5.269.357-5.539.794C96.966 98.865 91 124.769 91 126.572c0 1.044 1.323 1.428 4.917 1.428h4.916l2.493-10.635c1.371-5.849 3.096-11.017 3.833-11.485 1.827-1.157 6.586-1.102 7.32.086.483.781-2.416 15.781-4.016 20.784-.287.895 1.133 1.25 5.001 1.25h5.401l2.26-10.121c1.243-5.566 2.904-10.766 3.693-11.554.805-.805 2.802-1.3 4.557-1.129 2.918.284 3.104.535 2.807 3.804-.277 3.046-2.228 11.898-3.802 17.25-.446 1.515.214 1.75 4.912 1.75h5.427l2.649-11.25c1.457-6.187 2.645-11.791 2.641-12.453-.024-3.298-2.563-6.383-6.135-7.453-3.384-1.014-4.369-.854-9.063 1.469-5.173 2.56-5.303 2.573-7.289.721-2.62-2.443-6.222-3.13-10.223-1.948m58.387-.069c-1.548.464-3.46 1.381-4.25 2.036-1.148.953-1.436.866-1.436-.431 0-1.278-1.052-1.622-4.961-1.622-5.756 0-4.67-2.364-10.216 22.247l-3.323 14.747-67.25.003L13 134v6h230v-6h-84.95l.619-3.25c.785-4.128.774-4.118 3.18-2.831 1.111.595 3.37 1.081 5.02 1.081 9.906 0 18.062-9.375 18.109-20.816.026-6.337-1.049-8.652-4.958-10.674-3.231-1.671-4.218-1.729-8.334-.493m48.361.288c-5.616 1.79-10.667 7.636-12.089 13.993-1.094 4.888-1.023 5.895.657 9.278 2.802 5.641 6.335 7.766 13.646 8.207 3.577.215 7.944-.193 10.236-.957 3.31-1.104 4.215-2.001 5.271-5.224.702-2.141 1.035-4.132.741-4.426-.294-.294-2.119.221-4.055 1.145-4.828 2.302-12.652 2.223-14.799-.15-3.237-3.577-2.114-4.094 9.533-4.388l11.188-.283.901-3.482c.592-2.289.506-4.8-.252-7.327-.923-3.084-1.98-4.222-5.338-5.746-4.615-2.095-10.341-2.329-15.64-.64m3.418 6.647c-1.119.453-2.636 1.55-3.372 2.436-1.206 1.453-.733 1.612 4.785 1.612 4.71 0 6.122-.338 6.122-1.465 0-.805-.87-1.93-1.934-2.5-2.237-1.197-2.832-1.206-5.601-.083m-57.034 1.012c-1.509.611-2.407 2.419-3.321 6.687-.689 3.217-1.459 6.583-1.711 7.481-.643 2.289 2.272 3.132 6.271 1.812 3.851-1.271 6.326-5.222 6.521-10.408.211-5.62-2.62-7.652-7.76-5.572m-97.018 9.979c-1.698.406-3.611 1.061-4.25 1.456-1.724 1.066-1.409 4.293.49 5.021 2.257.866 8.347-1.261 8.347-2.916 0-.737.273-2.052.607-2.922.661-1.723-.212-1.83-5.194-.639M42 152.709c-2.825 1.039-5 3.601-5 5.889 0 2.65 3.424 5.402 6.723 5.402 1.252 0 2.277.45 2.277 1 0 1.309-4.597 1.286-7.066-.035-1.709-.915-1.934-.692-1.934 1.912 0 2.643.4 3.015 3.873 3.602 10.581 1.787 17.079-9.084 6.604-11.049-5.519-1.036-5.635-2.861-.133-2.106 4.206.576 4.656.444 4.656-1.368 0-2.961-5.722-4.819-10-3.247m17.11.637c-7.359 4.232-6.231 14.339 1.873 16.767 5.742 1.72 10.412.226 10.841-3.469.292-2.52.127-2.688-1.685-1.719-2.888 1.546-7.688 1.323-9.139-.425-1.084-1.306-.451-1.5 4.878-1.5H72v-3.345c0-2.001-.754-4.027-1.876-5.043-2.553-2.31-8.091-2.947-11.014-1.266m50.247-.354c-5.248 2.117-6.991 9.66-3.314 14.336 4.113 5.229 13.757 3.959 16.066-2.115 3.07-8.074-4.663-15.486-12.752-12.221m66.406.524c-2.688 1.507-4.264 5.047-3.991 8.966.552 7.902 9.866 10.974 15.978 5.27 3.183-2.972 3.127-9.579-.107-12.617-3.058-2.873-8.356-3.595-11.88-1.619m55.876-.822c-.381.382-2.481.588-4.666.459l-3.973-.234V170h2.952c2.923 0 2.956-.062 3.25-6.25.262-5.484.543-6.25 2.298-6.25s2.036.766 2.298 6.25c.294 6.188.327 6.25 3.25 6.25H240v-7.443c0-6.558-.264-7.629-2.223-9-2.351-1.647-4.983-2.017-6.138-.863M16 160c0 5.776.367 7.367 2.098 9.098 1.543 1.543 2.799 1.927 4.75 1.453 1.459-.355 4.34-.606 6.402-.558l3.75.088V153h-3c-2.994 0-3 .012-3 5.893 0 4.464-.386 6.041-1.59 6.503-2.705 1.038-3.41-.296-3.41-6.455 0-5.934-.003-5.941-3-5.941h-3zm68-6.227c0 .425 1.349 4.275 2.997 8.555 2.817 7.315 2.905 7.96 1.474 10.728L86.949 176h3.415c3.404 0 3.432-.039 7.776-10.703 2.398-5.886 4.521-11.093 4.717-11.571.197-.478-1.117-.724-2.92-.547-2.955.289-3.441.813-4.943 5.321l-1.667 5-1.744-5.25c-1.573-4.736-2.029-5.25-4.663-5.25-1.606 0-2.92.348-2.92.773m42 6.704c0 6.866.204 7.61 2.493 9.11 1.728 1.133 3.338 1.402 5.25.879 1.516-.415 4.22-.655 6.007-.534l3.25.221V153h-3c-2.994 0-3 .012-3 5.893 0 4.464-.386 6.041-1.59 6.503-2.705 1.038-3.41-.296-3.41-6.455 0-5.934-.003-5.941-3-5.941h-3zm22 1.08V170h3c2.962 0 3-.067 3-5.393 0-5.562 1.248-7.217 4.5-5.969 1.126.432 1.5-.164 1.5-2.389 0-2.949-.035-2.966-6-3.051l-6-.085zm44.534-5.403c.381 1.735 1.469 5.448 2.418 8.25 1.538 4.542 2.069 5.13 4.874 5.408 2.971.295 3.217.056 4.369-4.25.671-2.509 1.483-4.562 1.805-4.562.322 0 1.134 2.053 1.805 4.562 1.152 4.306 1.398 4.545 4.369 4.25 2.805-.278 3.336-.866 4.874-5.408.949-2.802 2.037-6.515 2.418-8.25.656-2.985.534-3.154-2.268-3.154-2.688 0-3.077.438-4.226 4.75l-1.265 4.75-1.412-4.75c-1.25-4.207-1.733-4.75-4.225-4.75-2.542 0-2.955.508-4.278 5.25l-1.465 5.25-1.263-5.25c-1.173-4.876-1.476-5.25-4.243-5.25-2.823 0-2.943.166-2.287 3.154M61 158c0 .55 1.125 1 2.5 1s2.5-.45 2.5-1-1.125-1-2.5-1-2.5.45-2.5 1m49.429 1.428c-.864 3.441.376 6.572 2.603 6.572 2.688 0 4.202-3.255 2.993-6.435-1.282-3.371-4.763-3.457-5.596-.137m67.992-1.083c-.314.818-.424 2.762-.246 4.321.26 2.27.823 2.834 2.825 2.834 2.25 0 2.5-.4 2.5-4 0-3.389-.344-4.049-2.254-4.32-1.308-.186-2.494.303-2.825 1.165"/></svg>